<?xml version="1.0" encoding="UTF-8"?>
<svg xmlns="http://www.w3.org/2000/svg" xmlns:xlink="http://www.w3.org/1999/xlink" viewBox="0 0 24 24" width="24px" height="24px">
<g id="surface13519835">
<path style=" stroke:none;fill-rule:nonzero;fill:rgb(0%,0%,0%);fill-opacity:1;" d="M 10.714844 0.417969 C 5.332031 1.003906 1.003906 5.332031 0.417969 10.597656 C -0.167969 16.09375 2.992188 21.007812 7.789062 22.882812 C 8.140625 22.996094 8.488281 22.765625 8.488281 22.296875 L 8.488281 20.425781 C 8.488281 20.425781 8.023438 20.539062 7.4375 20.539062 C 5.800781 20.539062 5.097656 19.136719 4.980469 18.316406 C 4.863281 17.851562 4.628906 17.5 4.277344 17.148438 C 3.925781 17.03125 3.808594 17.03125 3.808594 16.914062 C 3.808594 16.679688 4.160156 16.679688 4.277344 16.679688 C 4.980469 16.679688 5.566406 17.5 5.800781 17.851562 C 6.382812 18.785156 7.085938 19.019531 7.4375 19.019531 C 7.90625 19.019531 8.257812 18.902344 8.488281 18.785156 C 8.605469 17.96875 8.957031 17.148438 9.660156 16.679688 C 6.96875 16.09375 4.980469 14.574219 4.980469 12 C 4.980469 10.714844 5.566406 9.425781 6.382812 8.488281 C 6.265625 8.257812 6.148438 7.671875 6.148438 6.851562 C 6.148438 6.382812 6.148438 5.683594 6.5 4.980469 C 6.5 4.980469 8.140625 4.980469 9.777344 6.5 C 10.363281 6.265625 11.179688 6.148438 12 6.148438 C 12.820312 6.148438 13.636719 6.265625 14.339844 6.5 C 15.859375 4.980469 17.617188 4.980469 17.617188 4.980469 C 17.851562 5.683594 17.851562 6.382812 17.851562 6.851562 C 17.851562 7.789062 17.734375 8.257812 17.617188 8.488281 C 18.433594 9.425781 19.019531 10.597656 19.019531 12 C 19.019531 14.574219 17.03125 16.09375 14.339844 16.679688 C 15.042969 17.265625 15.511719 18.316406 15.511719 19.371094 L 15.511719 22.414062 C 15.511719 22.765625 15.859375 23.113281 16.328125 22.996094 C 20.65625 21.242188 23.699219 17.03125 23.699219 12.117188 C 23.699219 5.097656 17.734375 -0.402344 10.714844 0.417969 Z M 10.714844 0.417969 "/>
</g>
</svg>
