<?xml version="1.0" encoding="UTF-8"?>
<svg xmlns="http://www.w3.org/2000/svg" xmlns:xlink="http://www.w3.org/1999/xlink" viewBox="0 0 24 24" width="24px" height="24px">
<g id="surface13529412">
<path style=" stroke:none;fill-rule:nonzero;fill:rgb(0%,0%,0%);fill-opacity:1;" d="M 6.761719 0.210938 C 3.148438 0.210938 0.210938 3.148438 0.210938 6.761719 L 0.210938 17.238281 C 0.210938 20.851562 3.148438 23.789062 6.761719 23.789062 L 17.238281 23.789062 C 20.851562 23.789062 23.789062 20.851562 23.789062 17.238281 L 23.789062 6.761719 C 23.789062 3.148438 20.851562 0.210938 17.238281 0.210938 Z M 6.761719 2.828125 L 17.238281 2.828125 C 19.40625 2.828125 21.171875 4.59375 21.171875 6.761719 L 21.171875 17.238281 C 21.171875 19.40625 19.40625 21.171875 17.238281 21.171875 L 6.761719 21.171875 C 4.59375 21.171875 2.828125 19.40625 2.828125 17.238281 L 2.828125 6.761719 C 2.828125 4.59375 4.59375 2.828125 6.761719 2.828125 Z M 18.550781 4.140625 C 17.828125 4.140625 17.238281 4.726562 17.238281 5.449219 C 17.238281 6.171875 17.828125 6.761719 18.550781 6.761719 C 19.273438 6.761719 19.859375 6.171875 19.859375 5.449219 C 19.859375 4.726562 19.273438 4.140625 18.550781 4.140625 Z M 12 5.449219 C 8.386719 5.449219 5.449219 8.386719 5.449219 12 C 5.449219 15.613281 8.386719 18.550781 12 18.550781 C 15.613281 18.550781 18.550781 15.613281 18.550781 12 C 18.550781 8.386719 15.613281 5.449219 12 5.449219 Z M 12 8.070312 C 14.167969 8.070312 15.929688 9.832031 15.929688 12 C 15.929688 14.167969 14.167969 15.929688 12 15.929688 C 9.832031 15.929688 8.070312 14.167969 8.070312 12 C 8.070312 9.832031 9.832031 8.070312 12 8.070312 Z M 12 8.070312 "/>
</g>
</svg>
