<?xml version="1.0" encoding="UTF-8"?>
<svg xmlns="http://www.w3.org/2000/svg" xmlns:xlink="http://www.w3.org/1999/xlink" viewBox="0 0 50 50" width="50px" height="50px">
<g id="surface13523614">
<path style=" stroke:none;fill-rule:nonzero;fill:rgb(0%,0%,0%);fill-opacity:1;" d="M 25 0.390625 C 11.429688 0.390625 0.390625 11.429688 0.390625 25 C 0.390625 38.570312 11.429688 49.609375 25 49.609375 C 38.570312 49.609375 49.609375 38.570312 49.609375 25 C 49.609375 11.429688 38.570312 0.390625 25 0.390625 Z M 17.511719 35.699219 L 13.230469 35.699219 L 13.230469 19.648438 L 17.511719 19.648438 Z M 15.371094 16.441406 C 14.1875 16.441406 13.230469 15.480469 13.230469 14.300781 C 13.230469 13.117188 14.1875 12.160156 15.371094 12.160156 C 16.550781 12.160156 17.511719 13.117188 17.511719 14.300781 C 17.511719 15.480469 16.550781 16.441406 15.371094 16.441406 Z M 37.839844 35.699219 L 33.558594 35.699219 L 33.558594 27.675781 C 33.558594 25.617188 31.875 23.929688 29.816406 23.929688 C 27.753906 23.929688 26.070312 25.617188 26.070312 27.675781 L 26.070312 35.699219 L 21.789062 35.699219 L 21.789062 19.648438 L 26.070312 19.648438 L 26.070312 21.59375 C 27.320312 20.394531 29.015625 19.648438 30.886719 19.648438 C 34.726562 19.648438 37.839844 22.765625 37.839844 26.605469 Z M 37.839844 35.699219 "/>
</g>
</svg>
